<?xml version="1.0" encoding="UTF-8"?>
<svg xmlns="http://www.w3.org/2000/svg" xmlns:xlink="http://www.w3.org/1999/xlink" width="22px" height="24px" viewBox="0 0 22 24" version="1.1">
<g id="surface1">
<path style=" stroke:none;fill-rule:nonzero;fill:rgb(0%,0%,0%);fill-opacity:1;" d="M 18.976562 12 C 20.207031 13.46875 21.226562 15.117188 21.996094 16.894531 C 18.675781 20.320312 14.398438 22.828125 9.589844 23.996094 C 9.101562 23.355469 8.652344 22.683594 8.246094 21.984375 C 7.675781 21.007812 7.199219 19.996094 6.8125 18.964844 C 11.671875 18.152344 15.953125 15.609375 18.976562 12 Z M 18.976562 12 "/>
<path style=" stroke:none;fill-rule:nonzero;fill:rgb(0%,0%,0%);fill-opacity:1;" d="M 21.996094 7.101562 C 21.226562 8.882812 20.207031 10.527344 18.976562 12 C 15.953125 8.386719 11.671875 5.847656 6.808594 5.03125 C 7.488281 3.214844 8.417969 1.523438 9.574219 -0.00390625 C 14.390625 1.164062 18.675781 3.675781 21.996094 7.101562 Z M 21.996094 7.101562 "/>
<path style=" stroke:none;fill-rule:nonzero;fill:rgb(0%,0%,0%);fill-opacity:1;" d="M 3.441406 19.242188 C 2.621094 19.242188 1.8125 19.195312 1.015625 19.097656 C -0.367188 14.386719 -0.316406 9.460938 1.019531 4.898438 C 1.8125 4.804688 2.621094 4.753906 3.441406 4.753906 C 4.585938 4.753906 5.710938 4.847656 6.808594 5.03125 C 6.589844 5.617188 6.394531 6.214844 6.230469 6.824219 C 5.128906 10.890625 5.347656 15.097656 6.808594 18.964844 C 5.714844 19.148438 4.589844 19.242188 3.441406 19.242188 Z M 3.441406 19.242188 "/>
</g>
</svg>
